Coordinates
version=1
nRows=6
nColumns=36
inDegrees=yes

Units are S.I. units (second, meters, Newtons, ...)
If the header above contains a line with 'inDegrees', this indicates whether rotational values are in degrees (yes) or radians (no).

endheader
time	pelvis_tilt	pelvis_list	pelvis_rotation	pelvis_tx	pelvis_ty	pelvis_tz	hip_flexion_r	hip_adduction_r	hip_rotation_r	knee_angle_r	knee_angle_r_beta	ankle_angle_r	subtalar_angle_r	mtp_angle_r	hip_flexion_l	hip_adduction_l	hip_rotation_l	knee_angle_l	knee_angle_l_beta	ankle_angle_l	subtalar_angle_l	mtp_angle_l	lumbar_extension	lumbar_bending	lumbar_rotation	arm_flex_r	arm_add_r	arm_rot_r	elbow_flex_r	pro_sup_r	arm_flex_l	arm_add_l	arm_rot_l	elbow_flex_l	pro_sup_l
      7.33333330	      7.26131513	      1.02228734	     -3.44805012	      0.44929117	      1.04004119	      0.72705629	     14.91640195	     -3.17120961	      5.13564016	     65.70054639	      1.14669085	     -4.01721512	    -17.28151166	     -7.49999987	      0.71833058	      3.05685775	     -0.17798754	     15.07987216	      0.26319342	      5.81339860	     -8.07053477	     -7.49999987	    -19.93595250	     -4.97121139	      5.69696785	     -2.46498289	    -15.32802712	     -2.50954237	     32.93746809	     85.09969643	     15.12986862	    -13.17067666	     21.17619252	     18.87509352	     91.77389573
      7.35000000	      7.28046669	      0.65787524	     -3.12710369	      0.44870159	      1.04331499	      0.72636058	     15.88189842	     -2.55981013	      4.69772256	     63.90324488	      1.11532203	     -1.76847096	    -16.71856283	     -7.49999987	     -0.86127082	      2.84081783	      0.30933933	     14.35506430	      0.25054314	      6.94906282	     -7.40402569	     -7.49999987	    -19.99530009	     -4.48943943	      5.43819928	     -3.15815462	    -15.26636048	     -2.52832415	     32.04861489	     84.92617570	     16.19967724	    -13.52924776	     21.07337316	     19.93015532	     90.65031261
      7.36666670	      7.36351694	      0.26885262	     -2.75824842	      0.44832723	      1.04602610	      0.72561765	     16.72306495	     -1.99884829	      4.15065519	     61.32726510	      1.07036270	      0.35315054	    -16.21764421	     -7.49999987	     -2.53745218	      2.54007825	      0.77558277	     13.64027269	      0.23806767	      8.02756062	     -6.71167645	     -7.49999987	    -20.21728437	     -3.96275587	      5.37567266	     -4.18674688	    -15.13849839	     -3.06377802	     31.74494245	     85.04530711	     17.43001164	    -13.87439983	     21.10298527	     21.29192423	     90.06575206
      7.38333330	      7.40849128	     -0.10101060	     -2.41806664	      0.44814436	      1.04707596	      0.72487048	     17.50044596	     -1.55533763	      3.46478510	     58.03126700	      1.01283668	      2.04801886	    -15.74012662	     -7.49999987	     -4.15258183	      2.20307722	      1.27531747	     12.99238813	      0.22675995	      9.03158792	     -6.04903753	     -7.49999987	    -20.42731186	     -3.44370793	      5.40171880	     -5.37577751	    -14.92855599	     -3.74400054	     31.60591572	     84.58160560	     18.61141353	    -14.17674857	     20.84438003	     22.80067571	     88.84431498
      7.40000000	      7.52607683	     -0.42693525	     -2.12918512	      0.44806044	      1.04676703	      0.72419059	     18.03111134	     -1.23976310	      2.71444398	     54.03987014	      0.94317366	      3.30182091	    -15.36578515	     -7.49999987	     -5.83039658	      1.87806929	      1.82744674	     12.37162216	      0.21592554	      9.93536751	     -5.37826425	     -7.49999987	    -20.72855767	     -2.95249199	      5.61626383	     -6.80627191	    -14.64636597	     -4.79991007	     31.82746624	     84.40745763	     19.78335330	    -14.32128105	     20.62101500	     24.24337735	     88.09851962
      7.41666670	      7.54123945	     -0.69369836	     -1.91229378	      0.44745293	      1.04559169	      0.72400001	     18.47637128	     -1.03456847	      2.00243228	     49.40221854	      0.86223137	      3.94180213	    -15.02881725	     -7.49999987	     -7.40639751	      1.56558281	      2.30749302	     11.76867754	      0.20540217	     10.62230694	     -4.91721866	     -7.49999987	    -20.98747277	     -2.52243712	      5.86480093	     -8.20059350	    -14.23592609	     -6.00069987	     32.09912630	     84.08963514	     20.71466415	    -14.47020367	     20.14124559	     25.76854813	     87.21342886
